<?xml version="1.0" standalone="no"?>
<!DOCTYPE svg PUBLIC "-//W3C//DTD SVG 20010904//EN"
 "http://www.w3.org/TR/2001/REC-SVG-20010904/DTD/svg10.dtd">
<svg version="1.0" xmlns="http://www.w3.org/2000/svg"
 width="638.406919pt" height="627.154708pt" viewBox="0 0 638.406919 627.154708"
 preserveAspectRatio="xMidYMid meet">
<metadata>
Created by potrace 1.16, written by Peter Selinger 2001-2019
</metadata>
<g transform="translate(-383.018700,689.698740) scale(0.100000,-0.100000)"
fill="none" stroke="none">
<path d="M6703 6885 c-332 -38 -645 -118 -922 -237 -696 -297 -1249 -809
-1600 -1480 -235 -449 -351 -922 -351 -1438 0 -705 263 -1413 729 -1960 519
-610 1212 -994 2018 -1117 162 -25 204 -27 473 -28 261 0 312 3 440 23 784
124 1482 507 1979 1087 184 213 311 407 436 660 146 296 227 551 283 889 24
149 26 184 26 456 0 319 -10 418 -69 685 -138 625 -524 1266 -1019 1693 -477
411 -1008 655 -1641 754 -171 26 -601 34 -782 13z m723 -215 c351 -47 602
-124 919 -280 205 -101 342 -184 500 -305 460 -350 808 -818 1009 -1359 219
-584 233 -1275 39 -1861 -184 -558 -528 -1039 -1014 -1417 -392 -305 -953
-537 -1459 -603 -767 -99 -1606 123 -2220 586 -485 366 -829 834 -1021 1389
-200 576 -208 1207 -22 1783 217 676 664 1249 1273 1634 422 267 918 422 1455
457 116 7 401 -6 541 -24z" fill="#ffffff"/>
<path d="M8060 5689 c-162 -32 -405 -80 -540 -105 -135 -26 -248 -49 -252 -53
-4 -3 82 -70 192 -149 l199 -142 333 236 c380 268 387 273 373 273 -5 0 -143
-27 -305 -60z" fill="#ed492a"/>
<path d="M8175 5573 c-121 -86 -282 -200 -358 -253 l-137 -97 204 -153 c113
-83 208 -151 213 -151 4 1 47 104 94 229 101 269 204 540 214 565 4 9 3 17 -1
16 -5 0 -108 -71 -229 -156z" fill="#ed682a"/>
<path d="M8385 5588 c-20 -57 -87 -233 -148 -393 -61 -159 -110 -297 -109
-305 0 -8 68 -154 151 -325 l151 -309 0 717 c0 394 -2 717 -3 717 -2 0 -21
-46 -42 -102z" fill="#ed872a"/>
<path d="M6960 5474 c-113 -22 -355 -69 -538 -104 -183 -35 -329 -67 -325 -71
5 -4 152 -55 328 -114 176 -58 325 -109 331 -111 10 -4 421 434 413 439 -2 2
-96 -16 -209 -39z" fill="#eda52a"/>
<path d="M7005 5289 c-110 -120 -201 -223 -203 -227 -3 -9 498 -295 505 -288
4 4 -95 726 -101 733 -1 1 -91 -97 -201 -218z" fill="#edc42a"/>
<path d="M7233 5494 c3 -11 26 -167 52 -349 25 -181 49 -338 53 -347 5 -13 45
39 155 202 l147 219 -52 39 c-89 64 -332 238 -347 246 -10 6 -12 4 -8 -10z" fill="#ede32a"/>
<path d="M6053 5268 c3 -7 40 -89 82 -183 42 -93 99 -219 125 -280 73 -168
101 -225 108 -224 4 0 48 53 99 117 50 64 135 170 187 235 53 64 95 117 94
117 -2 0 -158 52 -347 115 -189 63 -346 115 -349 115 -2 0 -2 -6 1 -12z" fill="#d9ed2a"/>
<path d="M6051 5175 c-1 -16 5 -70 13 -120 8 -49 22 -146 30 -215 38 -299 117
-896 120 -905 6 -18 14 14 71 305 33 162 55 297 52 315 -3 16 -62 156 -132
310 -70 154 -133 294 -140 310 l-13 30 -1 -30z" fill="#baed2a"/>
<path d="M7617 5138 c-71 -101 -247 -367 -247 -374 0 -4 15 -4 33 0 17 4 174
34 347 67 173 33 316 62 318 64 3 3 -362 279 -395 298 -7 4 -28 -17 -56 -55z" fill="#9bed2a"/>
<path d="M6037 4075 c3 -539 7 -981 8 -983 1 -1 12 48 24 110 12 62 47 229 77
370 l55 258 -76 582 c-41 321 -80 597 -84 613 -6 18 -7 -377 -4 -950z" fill="#7ced2a"/>
<path d="M6683 4923 c-164 -198 -283 -347 -280 -350 2 -2 71 10 153 26 82 17
279 55 439 86 159 31 291 58 293 60 2 2 -27 20 -65 41 -37 21 -150 84 -251
141 -100 57 -186 103 -191 103 -5 0 -49 -48 -98 -107z" fill="#5eed2a"/>
<path d="M8121 4111 c-1 -393 1 -712 3 -710 3 2 43 108 90 234 47 127 112 302
145 390 34 88 61 167 61 176 0 9 -67 153 -149 320 l-149 304 -1 -714z" fill="#3fed2a"/>
<path d="M6340 4386 c0 -3 -25 -127 -55 -276 l-56 -271 41 -422 c23 -232 48
-494 56 -582 8 -88 17 -164 19 -170 2 -5 4 380 4 858 1 477 -1 867 -4 867 -3
0 -5 -2 -5 -4z" fill="#2aed34"/>
<path d="M8312 3821 c-63 -168 -129 -348 -149 -399 -19 -51 -33 -102 -30 -114
3 -11 70 -127 149 -258 l143 -237 3 328 c1 181 1 477 0 658 l-3 328 -113 -306z" fill="#2aed53"/>
<path d="M6200 3714 c0 -10 -12 -71 -26 -134 -42 -186 -124 -601 -124 -627 0
-35 274 -490 278 -462 6 34 -110 1223 -120 1234 -5 5 -8 1 -8 -11z" fill="#2aed72"/>
<path d="M7690 3345 c0 -8 16 -81 36 -160 33 -130 38 -144 53 -133 53 42 286
242 289 248 1 3 -75 16 -170 29 -95 12 -181 25 -190 27 -12 4 -18 0 -18 -11z" fill="#2aed91"/>
<path d="M7588 3307 c-31 -23 -104 -75 -162 -116 -58 -41 -106 -78 -106 -83 0
-4 10 -8 21 -8 22 0 340 -57 372 -66 23 -7 22 9 -8 136 -38 156 -45 180 -53
179 -4 0 -32 -19 -64 -42z" fill="#2aedb0"/>
<path d="M7984 3192 c-61 -53 -131 -113 -155 -133 -24 -21 -42 -39 -39 -41 8
-7 620 -236 620 -232 0 9 -304 504 -309 503 -3 0 -56 -44 -117 -97z" fill="#2aedce"/>
<path d="M7348 2979 c26 -55 49 -101 52 -102 3 -1 72 27 153 63 110 48 144 66
130 72 -17 7 -352 68 -372 68 -6 0 11 -45 37 -101z" fill="#2aeded"/>
<path d="M7217 2918 c-31 -78 -55 -143 -54 -145 7 -6 202 85 202 94 0 15 -79
193 -86 193 -3 0 -31 -64 -62 -142z" fill="#2aceed"/>
<path d="M5600 2984 c0 -13 72 -289 79 -301 4 -8 30 8 76 48 39 33 110 93 158
132 l89 72 -164 22 c-89 12 -180 24 -200 27 -21 4 -38 3 -38 0z" fill="#2ab0ed"/>
<path d="M7708 2984 c-4 -3 -70 -34 -148 -69 -78 -35 -144 -66 -147 -68 -4 -5
83 -205 97 -220 6 -7 135 207 194 321 16 31 18 50 4 36z" fill="#2a91ed"/>
<path d="M5520 2949 c-25 -18 -99 -71 -165 -117 -66 -45 -119 -86 -118 -90 2
-7 406 -82 412 -76 5 4 -57 251 -72 287 l-12 28 -45 -32z" fill="#2a72ed"/>
<path d="M7645 2790 c-59 -105 -106 -192 -104 -194 2 -2 137 -34 299 -70 162
-37 307 -71 323 -76 15 -5 27 -6 27 -3 0 6 -306 395 -378 481 -25 28 -48 52
-52 52 -4 0 -55 -86 -115 -190z" fill="#2a53ed"/>
<path d="M7815 2969 c8 -11 275 -352 384 -489 l28 -35 98 149 c53 81 93 152
88 156 -4 5 -134 56 -288 114 -154 57 -289 108 -299 112 -15 6 -17 4 -11 -7z" fill="#2a34ed"/>
<path d="M6005 2910 c-7 -11 -207 -182 -273 -232 -24 -19 -31 -29 -21 -33 8
-3 146 -54 308 -115 162 -60 296 -108 298 -106 6 5 -290 496 -299 496 -4 0
-10 -5 -13 -10z" fill="#3f2aed"/>
<path d="M7282 2796 c-51 -24 -95 -46 -98 -48 -3 -3 29 -20 71 -38 42 -17 110
-47 151 -65 41 -19 74 -30 74 -25 0 11 -97 220 -102 219 -2 0 -45 -20 -96 -43z" fill="#5e2aed"/>
<path d="M7175 2703 c15 -42 157 -303 163 -302 10 0 147 168 146 177 -2 6 -58
32 -248 113 -58 25 -67 26 -61 12z" fill="#7c2aed"/>
<path d="M5318 2480 c59 -126 109 -230 112 -230 7 1 223 380 219 384 -4 3
-420 77 -431 76 -3 0 42 -103 100 -230z" fill="#9b2aed"/>
<path d="M5127 2537 c-31 -78 -57 -145 -57 -149 0 -3 17 -13 38 -21 20 -9 94
-41 165 -71 70 -30 126 -52 124 -48 -2 4 -48 103 -102 220 -54 116 -101 212
-105 212 -3 0 -32 -64 -63 -143z" fill="#ba2aed"/>
<path d="M5562 2423 c-62 -108 -111 -197 -110 -198 5 -5 641 -145 644 -142 2
1 -27 41 -64 87 -240 306 -336 426 -346 437 -8 9 -38 -36 -124 -184z" fill="#d92aed"/>
<path d="M5791 2518 c253 -325 344 -436 352 -431 12 7 200 294 195 297 -2 2
-514 191 -607 224 -7 3 20 -38 60 -90z" fill="#ed2ae3"/>
<path d="M7437 2473 c-49 -57 -72 -90 -64 -95 20 -11 350 -108 354 -104 3 3
-183 255 -207 279 -4 5 -42 -31 -83 -80z" fill="#ed2ac4"/>
<path d="M7656 2418 c59 -79 110 -147 115 -152 4 -5 96 26 209 69 110 43 197
81 193 85 -7 6 -597 140 -616 140 -4 0 40 -64 99 -142z" fill="#ed2aa5"/>
<path d="M5082 2342 c7 -17 161 -307 165 -312 3 -3 16 9 30 25 13 17 47 56 75
88 29 33 47 62 42 67 -8 8 -302 140 -311 140 -3 0 -3 -4 -1 -8z" fill="#ed2a87"/>
<path d="M5352 2103 c-39 -48 -68 -91 -64 -94 4 -4 54 -20 112 -37 58 -17 138
-42 178 -56 39 -14 72 -23 72 -21 0 5 -220 295 -224 295 -2 0 -35 -39 -74 -87z" fill="#ed2a68"/>
<path d="M5470 2184 c0 -12 215 -293 224 -293 22 -2 397 152 389 159 -6 6
-587 140 -608 140 -3 0 -5 -3 -5 -6z" fill="#ed2a49"/>
</g>
</svg>
